<?xml version="1.0" encoding="UTF-8"?>
<svg width="180px" height="180px" viewBox="0 0 180 180" version="1.1" xmlns="http://www.w3.org/2000/svg" xmlns:xlink="http://www.w3.org/1999/xlink">
    <title>logo</title>
    <g id="x变形" stroke="none" stroke-width="1" fill="none" fill-rule="evenodd">
        <g id="logo">
            <rect id="矩形" fill="#FFFFFF" x="0" y="0" width="180" height="180"></rect>
            <g id="编组-14" transform="translate(12.857143, 36.257143)" fill="#E32416" stroke="#E32416" stroke-width="4">
                <path d="M11.2618583,105.942857 L31.1976434,105.942857 C32.7063455,105.942857 34.1538265,105.34621 35.224309,104.283078 L73.5508729,66.2196935 C80.2685998,59.5480956 80.3059947,48.6939032 73.6343968,41.9761763 C73.5880992,41.9295587 73.5415341,41.8832076 73.4947036,41.8371253 L34.2141307,3.18412697 C33.1452604,2.13233373 31.7057724,1.54285714 30.2061882,1.54285714 L10.3783081,1.54285714 C8.01137346,1.54285714 6.09259381,3.46163679 6.09259381,5.82857143 C6.09259381,6.96842067 6.54666761,8.06131288 7.35440126,8.86556573 L42.0367309,43.3984371 C44.7195918,46.0697366 46.227783,49.6997423 46.227783,53.4857143 C46.227783,57.2789854 44.7520657,60.92347 42.1128588,63.6480788 L8.18354029,98.6753137 C6.5367215,100.375422 6.57992101,103.088642 8.28002909,104.735461 C9.07948063,105.509854 10.1488411,105.942857 11.2618583,105.942857 Z" id="路径-3备份-6"></path>
                <path d="M91.3604837,11.0762901 L97.1475226,5.27013256 C100.043772,2.36431473 104.747277,2.35655805 107.653095,5.25280753 C107.655987,5.25569027 107.658877,5.25857539 107.661764,5.2614629 L144.588263,42.1879613 C146.81983,44.4195286 146.81983,48.0376142 144.588263,50.2691816 C143.516626,51.3408181 142.063175,51.9428571 140.547653,51.9428571 L126.001659,51.9428571 C123.273874,51.9428571 120.657798,50.85931 118.728879,48.9305586 L91.3693683,21.5734362 C88.4714971,18.6758179 88.4675217,13.9788097 91.3604837,11.0762901 Z" id="路径-7备份-11" transform="translate(120.233966, 25.971429) scale(1, -1) translate(-120.233966, -25.971429) "></path>
                <path d="M91.3604837,66.6191473 L97.1475226,60.8129897 C100.043772,57.9071719 104.747277,57.8994152 107.653095,60.7956647 C107.655987,60.7985474 107.658877,60.8014325 107.661764,60.80432 L144.588263,97.7308184 C146.81983,99.9623858 146.81983,103.580471 144.588263,105.812039 C143.516626,106.883675 142.063175,107.485714 140.547653,107.485714 L126.001659,107.485714 C123.273874,107.485714 120.657798,106.402167 118.728879,104.473416 L91.3693683,77.1162933 C88.4714971,74.218675 88.4675217,69.5216668 91.3604837,66.6191473 Z" id="路径-7备份-12"></path>
            </g>
        </g>
    </g>
</svg>