<?xml version="1.0" encoding="UTF-8"?>
<svg width="56px" height="32px" viewBox="0 0 56 32" version="1.1" xmlns="http://www.w3.org/2000/svg" xmlns:xlink="http://www.w3.org/1999/xlink">
    <title>画板</title>
    <g id="画板" stroke="none" stroke-width="1" fill="none" fill-rule="evenodd">
        <g id="编组-2备份" transform="translate(9.000000, 1.000000)" stroke="#939699" stroke-width="0.936404582">
            <path d="M1.22822779,29.569378 L6.80950093,29.569378 C7.17942878,29.569378 7.53284184,29.4161915 7.78575213,29.146223 L18.3886902,17.8281407 C19.8394342,16.2795472 19.8338915,13.86921 18.3760406,12.3273051 L7.5237339,0.849296789 C7.27105387,0.58204821 6.91948859,0.43062201 6.55169925,0.43062201 L0.987025123,0.43062201 C0.432923012,0.43062201 -0.016265501,0.879810522 -0.016265501,1.43391263 C-0.016265501,1.68823733 0.0803201852,1.93307121 0.253957251,2.11889699 L9.55364718,12.0713927 C10.2778284,12.8464089 10.6806544,13.8675278 10.6806544,14.9282297 C10.6806544,15.9908586 10.2869498,17.0158055 9.57555714,17.8051728 L0.482939536,27.8944197 C0.111987712,28.306031 0.144948763,28.9404238 0.556560102,29.3113756 C0.740850347,29.4774614 0.980140328,29.569378 1.22822779,29.569378 Z M22.1393193,11.1244628 L23.9942449,13.1247762 C24.6473056,13.8290232 25.7476208,13.870518 26.4518678,13.2174573 C26.4832159,13.1883877 26.5134814,13.158172 26.5426025,13.1268718 L36.6632383,2.24892577 C37.1664829,1.70802423 37.1359559,0.861576545 36.5950543,0.358331952 C36.3475171,0.128027944 36.0219539,1.77635684e-15 35.6838494,0 L31.3382779,0 C30.6695663,0 30.0309717,0.278086222 29.5754493,0.76765187 L22.1413173,8.75737013 C21.5209094,9.42414389 21.5200379,10.4566427 22.1393193,11.1244628 Z M22.1393193,18.8755372 L23.9942449,16.8752238 C24.6473056,16.1709768 25.7476208,16.129482 26.4518678,16.7825427 C26.4832159,16.8116123 26.5134814,16.841828 26.5426025,16.8731282 L36.6632383,27.7510742 C37.1664829,28.2919758 37.1359559,29.1384235 36.5950543,29.641668 C36.3475171,29.8719721 36.0219539,30 35.6838494,30 L31.3382779,30 C30.6695663,30 30.0309717,29.7219138 29.5754493,29.2323481 L22.1413173,21.2426299 C21.5209094,20.5758561 21.5200379,19.5433573 22.1393193,18.8755372 Z" id="形状结合"></path>
        </g>
    </g>
</svg>