<svg width="576" height="658" viewBox="0 0 576 658" fill="none" xmlns="http://www.w3.org/2000/svg">
<g opacity="0.6">
<path opacity="0.1" d="M12.2012 426.884L-215 333.334V194.932L189.251 2.56592L598.769 201.589V389.625L184.016 215.452L15.0448 288.934L12.2012 426.884Z" fill="url(#paint0_linear_2892_44425)"/>
<path opacity="0.2" d="M12.2012 426.884L-215 333.334V194.932L189.251 2.56592L598.769 201.589V389.625L184.016 215.452L15.0448 288.934L12.2012 426.884Z" stroke="url(#paint1_linear_2892_44425)" stroke-width="3.23142" stroke-miterlimit="10"/>
<path opacity="0.3" d="M23.6397 421.164L-192.09 332.397V201.137L191.641 18.3353L580.155 206.856V385.845L186.406 220.234L26.031 289.904L23.6397 421.164Z" stroke="url(#paint2_linear_2892_44425)" stroke-width="3.23142" stroke-miterlimit="10"/>
<path opacity="0.35" d="M34.6283 415.445L-169.662 331.428V206.856L193.55 34.0723L561.544 212.576V381.547L188.767 225.469L37.0195 291.326L34.6283 415.445Z" stroke="url(#paint3_linear_2892_44425)" stroke-width="3.23142" stroke-miterlimit="10"/>
<path opacity="0.4" d="M45.5806 409.693L-147.238 330.458V213.061L195.939 49.8416L542.929 218.328V377.734L191.156 230.252L47.9718 292.78L45.5806 409.693Z" stroke="url(#paint4_linear_2892_44425)" stroke-width="3.23142" stroke-miterlimit="10"/>
<path opacity="0.45" d="M56.5678 403.973L-124.327 329.521V218.78L197.845 65.5786L524.316 224.047V373.921L193.548 235.002L58.959 293.717L56.5678 403.973Z" stroke="url(#paint5_linear_2892_44425)" stroke-width="3.23142" stroke-miterlimit="10"/>
<path opacity="0.5" d="M68.0389 398.253L-101.869 328.099V224.985L200.236 81.348L505.703 229.767V370.075L195.939 240.269L69.9455 295.171L68.0389 398.253Z" stroke="url(#paint6_linear_2892_44425)" stroke-width="3.23142" stroke-miterlimit="10"/>
<path opacity="0.6" d="M78.9929 392.534L-78.9912 327.13V231.189L202.142 97.085L487.089 235.487V366.262L198.814 245.052L80.8995 296.108L78.9929 392.534Z" stroke="url(#paint7_linear_2892_44425)" stroke-width="3.23142" stroke-miterlimit="10"/>
<path opacity="0.8" d="M89.9823 386.782L-56.5303 326.193V236.941L204.536 112.822L468.479 241.206V362.449L201.175 250.287L91.8889 297.53L89.9823 386.782Z" stroke="url(#paint8_linear_2892_44425)" stroke-width="3.23142" stroke-miterlimit="10"/>
<path opacity="0.8" d="M101.453 381.062L-33.6201 325.223V243.145L206.442 128.591L449.865 246.958V358.636L203.566 255.069L102.875 298.984L101.453 381.062Z" stroke="url(#paint9_linear_2892_44425)" stroke-width="3.23142" stroke-miterlimit="10"/>
<path opacity="0.9" d="M112.409 375.343L-11.1924 324.286V248.865L208.35 144.328L430.769 252.193V354.338L205.507 259.852L113.379 299.954L112.409 375.343Z" stroke="url(#paint10_linear_2892_44425)" stroke-width="3.23142" stroke-miterlimit="10"/>
<path opacity="0.1" d="M112.409 375.342L-11.1924 324.286V248.865L208.35 144.328L430.769 252.193V354.338L205.507 259.852L113.379 299.953L112.409 375.342Z" fill="url(#paint11_linear_2892_44425)"/>
<path opacity="0.2" d="M371.567 407.269L598.769 500.819V639.221L194.518 831.555L-215 632.531V444.495L199.753 618.701L368.724 545.186L371.567 407.269Z" stroke="url(#paint12_linear_2892_44425)" stroke-width="3.23142" stroke-miterlimit="10"/>
<path opacity="0.2" d="M371.567 407.269L598.769 500.819V639.221L194.518 831.555L-215 632.531V444.495L199.753 618.701L368.724 545.186L371.567 407.269Z" fill="url(#paint13_linear_2892_44425)"/>
<path opacity="0.3" d="M364.425 413.958L580.155 503.21V634.438L196.424 816.787L-192.09 628.234V449.73L201.659 614.888L362.034 545.186L364.425 413.958Z" stroke="url(#paint14_linear_2892_44425)" stroke-width="3.23142" stroke-miterlimit="10"/>
<path opacity="0.35" d="M357.738 421.1L561.544 505.117V629.203L198.332 802.44L-169.662 623.484V454.513L203.115 611.075L355.347 545.186L357.738 421.1Z" stroke="url(#paint15_linear_2892_44425)" stroke-width="3.23142" stroke-miterlimit="10"/>
<path opacity="0.4" d="M350.562 427.789L542.929 507.023V624.421L200.236 787.672L-147.238 618.701V459.295L205.019 607.229L348.203 544.734L350.562 427.789Z" stroke="url(#paint16_linear_2892_44425)" stroke-width="3.23142" stroke-miterlimit="10"/>
<path opacity="0.45" d="M343.421 434.478L524.316 509.414V619.67L202.143 772.872L-124.327 614.403V464.53L206.441 603.416L341.03 544.734L343.421 434.478Z" stroke="url(#paint17_linear_2892_44425)" stroke-width="3.23142" stroke-miterlimit="10"/>
<path opacity="0.5" d="M336.249 441.167L505.705 511.321V614.403L204.051 758.072L-101.899 609.621V469.312L207.865 599.119L334.342 544.249L336.249 441.167Z" stroke="url(#paint18_linear_2892_44425)" stroke-width="3.23142" stroke-miterlimit="10"/>
<path opacity="0.55" d="M329.105 448.308L487.089 513.227V609.62L205.955 743.272L-78.9912 604.87V474.095L209.769 595.305L327.198 544.249L329.105 448.308Z" stroke="url(#paint19_linear_2892_44425)" stroke-width="3.23142" stroke-miterlimit="10"/>
<path opacity="0.6" d="M321.934 454.997L468.479 515.134V604.386L207.865 728.957L-56.5303 600.573V479.33L211.225 591.493L320.512 544.249L321.934 454.997Z" stroke="url(#paint20_linear_2892_44425)" stroke-width="3.23142" stroke-miterlimit="10"/>
<path opacity="0.7" d="M314.792 461.686L449.865 517.525V599.603L209.77 714.157L-33.6201 595.79V484.112L212.646 587.679L313.337 543.764L314.792 461.686Z" stroke="url(#paint21_linear_2892_44425)" stroke-width="3.23142" stroke-miterlimit="10"/>
<path opacity="0.9" d="M307.616 468.828L431.218 519.884V595.306L211.675 699.842L-10.7109 591.492V489.347L214.551 583.834L306.679 543.732L307.616 468.828Z" stroke="url(#paint22_linear_2892_44425)" stroke-width="3.23142" stroke-miterlimit="10"/>
<path opacity="0.2" d="M307.616 468.828L431.218 519.884V595.306L211.675 699.842L-10.7109 591.492V489.347L214.551 583.834L306.679 543.732L307.616 468.828Z" fill="url(#paint23_linear_2892_44425)"/>
<rect y="477" width="576" height="221" fill="url(#paint24_linear_2892_44425)"/>
<rect y="477" width="576" height="221" fill="url(#paint25_linear_2892_44425)"/>
</g>
<defs>
<linearGradient id="paint0_linear_2892_44425" x1="-216.615" y1="215.033" x2="600.381" y2="215.033" gradientUnits="userSpaceOnUse">
<stop stop-color="white" stop-opacity="0"/>
<stop offset="1" stop-color="white" stop-opacity="0.96"/>
</linearGradient>
<linearGradient id="paint1_linear_2892_44425" x1="192.276" y1="402.377" x2="192.276" y2="1.96301" gradientUnits="userSpaceOnUse">
<stop stop-color="white" stop-opacity="0"/>
<stop offset="1" stop-color="white" stop-opacity="0.96"/>
</linearGradient>
<linearGradient id="paint2_linear_2892_44425" x1="194.404" y1="397.898" x2="194.404" y2="17.7629" gradientUnits="userSpaceOnUse">
<stop stop-color="white" stop-opacity="0"/>
<stop offset="1" stop-color="white" stop-opacity="0.96"/>
</linearGradient>
<linearGradient id="paint3_linear_2892_44425" x1="196.293" y1="393.418" x2="196.293" y2="33.5304" gradientUnits="userSpaceOnUse">
<stop stop-color="white" stop-opacity="0"/>
<stop offset="1" stop-color="white" stop-opacity="0.96"/>
</linearGradient>
<linearGradient id="paint4_linear_2892_44425" x1="198.177" y1="388.909" x2="198.177" y2="49.3303" gradientUnits="userSpaceOnUse">
<stop stop-color="white" stop-opacity="0"/>
<stop offset="1" stop-color="white" stop-opacity="0.96"/>
</linearGradient>
<linearGradient id="paint5_linear_2892_44425" x1="200.307" y1="384.429" x2="200.307" y2="65.0977" gradientUnits="userSpaceOnUse">
<stop stop-color="white" stop-opacity="0"/>
<stop offset="1" stop-color="white" stop-opacity="0.96"/>
</linearGradient>
<linearGradient id="paint6_linear_2892_44425" x1="202.209" y1="379.95" x2="202.209" y2="80.8977" gradientUnits="userSpaceOnUse">
<stop stop-color="white" stop-opacity="0"/>
<stop offset="1" stop-color="white" stop-opacity="0.96"/>
</linearGradient>
<linearGradient id="paint7_linear_2892_44425" x1="204.321" y1="375.47" x2="204.321" y2="96.6652" gradientUnits="userSpaceOnUse">
<stop stop-color="white" stop-opacity="0"/>
<stop offset="1" stop-color="white" stop-opacity="0.96"/>
</linearGradient>
<linearGradient id="paint8_linear_2892_44425" x1="206.227" y1="370.959" x2="206.227" y2="112.433" gradientUnits="userSpaceOnUse">
<stop stop-color="white" stop-opacity="0"/>
<stop offset="1" stop-color="white" stop-opacity="0.96"/>
</linearGradient>
<linearGradient id="paint9_linear_2892_44425" x1="208.355" y1="366.481" x2="208.355" y2="128.233" gradientUnits="userSpaceOnUse">
<stop stop-color="white" stop-opacity="0"/>
<stop offset="1" stop-color="white" stop-opacity="0.96"/>
</linearGradient>
<linearGradient id="paint10_linear_2892_44425" x1="210.001" y1="362" x2="210.001" y2="144" gradientUnits="userSpaceOnUse">
<stop stop-color="white" stop-opacity="0"/>
<stop offset="1" stop-color="white" stop-opacity="0.96"/>
</linearGradient>
<linearGradient id="paint11_linear_2892_44425" x1="-12.8142" y1="260.141" x2="432.38" y2="260.141" gradientUnits="userSpaceOnUse">
<stop stop-color="white" stop-opacity="0"/>
<stop offset="1" stop-color="white" stop-opacity="0.96"/>
</linearGradient>
<linearGradient id="paint12_linear_2892_44425" x1="214.435" y1="864.904" x2="219.93" y2="407.585" gradientUnits="userSpaceOnUse">
<stop stop-color="white" stop-opacity="0"/>
<stop offset="1" stop-color="white" stop-opacity="0.96"/>
</linearGradient>
<linearGradient id="paint13_linear_2892_44425" x1="-216.616" y1="619.116" x2="600.381" y2="619.116" gradientUnits="userSpaceOnUse">
<stop stop-color="white" stop-opacity="0.96"/>
<stop offset="1" stop-color="white" stop-opacity="0"/>
</linearGradient>
<linearGradient id="paint14_linear_2892_44425" x1="215.432" y1="848.45" x2="220.653" y2="414.258" gradientUnits="userSpaceOnUse">
<stop stop-color="white" stop-opacity="0"/>
<stop offset="1" stop-color="white" stop-opacity="0.96"/>
</linearGradient>
<linearGradient id="paint15_linear_2892_44425" x1="216.203" y1="832.413" x2="221.144" y2="421.384" gradientUnits="userSpaceOnUse">
<stop stop-color="white" stop-opacity="0"/>
<stop offset="1" stop-color="white" stop-opacity="0.96"/>
</linearGradient>
<linearGradient id="paint16_linear_2892_44425" x1="216.971" y1="815.959" x2="221.632" y2="428.057" gradientUnits="userSpaceOnUse">
<stop stop-color="white" stop-opacity="0"/>
<stop offset="1" stop-color="white" stop-opacity="0.96"/>
</linearGradient>
<linearGradient id="paint17_linear_2892_44425" x1="217.969" y1="799.47" x2="222.355" y2="434.73" gradientUnits="userSpaceOnUse">
<stop stop-color="white" stop-opacity="0"/>
<stop offset="1" stop-color="white" stop-opacity="0.96"/>
</linearGradient>
<linearGradient id="paint18_linear_2892_44425" x1="218.74" y1="782.981" x2="222.846" y2="441.403" gradientUnits="userSpaceOnUse">
<stop stop-color="white" stop-opacity="0"/>
<stop offset="1" stop-color="white" stop-opacity="0.96"/>
</linearGradient>
<linearGradient id="paint19_linear_2892_44425" x1="219.736" y1="766.457" x2="223.554" y2="448.528" gradientUnits="userSpaceOnUse">
<stop stop-color="white" stop-opacity="0"/>
<stop offset="1" stop-color="white" stop-opacity="0.96"/>
</linearGradient>
<linearGradient id="paint20_linear_2892_44425" x1="220.523" y1="750.491" x2="224.074" y2="455.201" gradientUnits="userSpaceOnUse">
<stop stop-color="white" stop-opacity="0"/>
<stop offset="1" stop-color="white" stop-opacity="0.96"/>
</linearGradient>
<linearGradient id="paint21_linear_2892_44425" x1="221.52" y1="734.002" x2="224.796" y2="461.874" gradientUnits="userSpaceOnUse">
<stop stop-color="white" stop-opacity="0"/>
<stop offset="1" stop-color="white" stop-opacity="0.96"/>
</linearGradient>
<linearGradient id="paint22_linear_2892_44425" x1="222.5" y1="718" x2="225.5" y2="469" gradientUnits="userSpaceOnUse">
<stop stop-color="white" stop-opacity="0"/>
<stop offset="1" stop-color="white" stop-opacity="0.96"/>
</linearGradient>
<linearGradient id="paint23_linear_2892_44425" x1="210" y1="541.5" x2="210" y2="700" gradientUnits="userSpaceOnUse">
<stop stop-color="white" stop-opacity="0.96"/>
<stop offset="1" stop-color="white" stop-opacity="0.32"/>
</linearGradient>
<linearGradient id="paint24_linear_2892_44425" x1="288" y1="477" x2="288" y2="698" gradientUnits="userSpaceOnUse">
<stop stop-color="#6536EE" stop-opacity="0"/>
<stop offset="1" stop-color="#6536EE"/>
</linearGradient>
<linearGradient id="paint25_linear_2892_44425" x1="288" y1="477" x2="288" y2="698" gradientUnits="userSpaceOnUse">
<stop stop-color="#6536EE" stop-opacity="0"/>
<stop offset="1" stop-color="#6536EE"/>
</linearGradient>
</defs>
</svg>
